<?xml version="1.0" encoding="UTF-8"?>
<svg id="Layer_1" xmlns="http://www.w3.org/2000/svg" viewBox="0 0 519.79 548.07">
  <defs>
    <style>
      .cls-1 {
        fill: none;
      }

      .cls-2 {
        fill: #fff;
        font-family: Arial-Black, 'Arial Black';
        font-size: 90.4px;
        font-weight: 800;
      }
    </style>
  </defs>
  <text/>
  <path class="cls-1" d="M482.74,308.31c0,132.42-107.34,239.76-239.76,239.76S3.22,440.73,3.22,308.31"/>
  <text class="cls-2" transform="translate(77.2 396.66) rotate(-88) scale(.57 1)"><tspan x="0" y="0">C</tspan></text>
  <text class="cls-2" transform="translate(78.46 357.59) rotate(-83.77) scale(.57 1)"><tspan x="0" y="0">H</tspan></text>
  <text class="cls-2" transform="translate(83.11 315.88) rotate(-79.61) scale(.57 1)"><tspan x="0" y="0">L</tspan></text>
  <text class="cls-2" transform="translate(88.7 283.91) rotate(-75.24) scale(.57 1)"><tspan x="0" y="0">O</tspan></text>
  <text class="cls-2" transform="translate(99.36 243.6) rotate(-70.1) scale(.57 1)"><tspan x="0" y="0">E</tspan></text>
  <text class="cls-2" transform="translate(111.98 209.59) rotate(-66.18) scale(.57 1)"><tspan x="0" y="0"> </tspan></text>
  <text class="cls-2" transform="translate(118.07 194.68) rotate(-61.78) scale(.57 1)"><tspan x="0" y="0">S</tspan></text>
  <text class="cls-2" transform="translate(134.39 163.36) rotate(-54.06) scale(.57 1)"><tspan x="0" y="0">H</tspan></text>
  <text class="cls-2" transform="translate(158.05 130.49) rotate(-44.17) scale(.57 1)"><tspan x="0" y="0">E</tspan></text>
  <text class="cls-2" transform="translate(181.86 106.09) rotate(-31.15) scale(.57 1)"><tspan x="0" y="0">K</tspan></text>
  <text class="cls-2" transform="translate(216.56 86.35) rotate(-19.59) scale(.57 1)"><tspan x="0" y="0">’</tspan></text>
  <text class="cls-2" transform="translate(226.8 81.1) rotate(-7.89) scale(.57 1)"><tspan x="0" y="0">S</tspan></text>
  <text class="cls-2" transform="translate(260.46 77.18) rotate(4.94) scale(.57 1)"><tspan x="0" y="0"> </tspan></text>
  <text class="cls-2" transform="translate(275.52 78.34) rotate(12.95) scale(.57 1)"><tspan x="0" y="0">-</tspan></text>
  <text class="cls-2" transform="translate(290.33 81.61) rotate(20.58) scale(.57 1)"><tspan x="0" y="0">-</tspan></text>
  <text class="cls-2" transform="translate(304.72 86.91) rotate(27.66) scale(.57 1)"><tspan x="0" y="0">-</tspan></text>
  <text class="cls-2" transform="translate(318.49 94.04) rotate(34.05) scale(.57 1)"><tspan x="0" y="0"> </tspan></text>
  <text class="cls-2" transform="translate(331.38 101.69) rotate(42.78) scale(.57 1)"><tspan x="0" y="0">P</tspan></text>
  <text class="cls-2" transform="translate(357.08 125.02) rotate(52.99) scale(.57 1)"><tspan x="0" y="0">O</tspan></text>
  <text class="cls-2" transform="translate(381.66 157.74) rotate(61.18) scale(.57 1)"><tspan x="0" y="0">R</tspan></text>
  <text class="cls-2" transform="translate(400.01 191.15) rotate(67.31) scale(.57 1)"><tspan x="0" y="0">T</tspan></text>
  <text class="cls-2" transform="translate(413.88 224.41) rotate(72.25) scale(.57 1)"><tspan x="0" y="0">F</tspan></text>
  <text class="cls-2" transform="translate(424.2 255.98) rotate(76.99) scale(.57 1)"><tspan x="0" y="0">O</tspan></text>
  <text class="cls-2" transform="translate(433.51 296.88) rotate(81.33) scale(.57 1)"><tspan x="0" y="0">L</tspan></text>
  <text class="cls-2" transform="translate(438.42 330.2) rotate(84.2) scale(.57 1)"><tspan x="0" y="0">I</tspan></text>
  <text class="cls-2" transform="translate(440.71 349.34) rotate(87.42) scale(.57 1)"><tspan x="0" y="0">O</tspan></text>
</svg>